<svg xmlns="http://www.w3.org/2000/svg" viewBox="0 0 128 128" role="img" aria-labelledby="title"><title>Karnataka Government Emblem</title><circle cx="64" cy="64" r="62" fill="#f7f3e9" stroke="#d4a017" stroke-width="4"/><g fill="#d4a017"><path d="M64 20c12 0 21 9 21 21s-9 21-21 21-21-9-21-21 9-21 21-21zm0 8c-7.2 0-13 5.8-13 13s5.8 13 13 13 13-5.8 13-13-5.8-13-13-13z"/><path d="M34 98c0-16.5 13.4-30 30-30s30 13.5 30 30H34zm30-22c-11 0-19.9 8.5-20 19h40c-.1-10.5-9-19-20-19z"/><path d="M21 59h14v8H21zm72 0h14v8H93z"/><path d="M60 12h8v12h-8zM60 104h8v12h-8z"/></g><circle cx="64" cy="64" r="6" fill="#d4a017"/></svg>